# xmcd CD database file generated by OrangeCD 6.5
#
# Track frame offsets:
#	150
#	15799
#	35118
#	67935
#	79794
#	98052
#	112617
#	128675
#	165088
#	176551
#	191765
#	212226
#	224178
#	238797
#	254377
#
# Disc length: 3807 seconds
#
# Revision: 1
# Processed by: cddbd v1.5.2PL0 Copyright (c) Steve Scherf et al.
# Submitted via: OrangeCD 6.5
#
DISCID=c40edd0f
DTITLE=Taste - I'll Remember
DYEAR=2015
DGENRE=Blues
TTITLE0=Blister On The Moon
TTITLE1=Leavin' Blues
TTITLE2=SugarMama
TTITLE3=Hail
TTITLE4=Born On The Wrong Side Of Time
TTITLE5=Dual Carriageway Pain
TTITLE6=Same Old Story
TTITLE7=Catfish
TTITLE8=I'm Movin' On
TTITLE9=Blister On The Moon
TTITLE10=Leavin' Blues
TTITLE11=Hail
TTITLE12=Dual Carriageway Pain
TTITLE13=Same Old Story
TTITLE14=Catfish
EXTD=
EXTT0=
EXTT1=
EXTT2=
EXTT3=
EXTT4=
EXTT5=
EXTT6=
EXTT7=
EXTT8=
EXTT9=
EXTT10=
EXTT11=
EXTT12=
EXTT13=
EXTT14=
PLAYORDER=
